# Blender 4.3.2
# www.blender.org
mtllib d6.mtl
o Cube
v 0.750000 0.750000 -1.000000
v 0.750000 1.000000 -0.750000
v 1.000000 0.750000 -0.750000
v 0.750000 0.874836 -0.966601
v 0.874836 0.750000 -0.966601
v 0.869553 0.869553 -0.934158
v 0.874836 0.966601 -0.750000
v 0.750000 0.966601 -0.874836
v 0.869553 0.934158 -0.869553
v 0.966601 0.750000 -0.874836
v 0.966601 0.874836 -0.750000
v 0.934158 0.869553 -0.869553
v 0.750000 -1.000000 -0.750000
v 0.750000 -0.750000 -1.000000
v 1.000000 -0.750000 -0.750000
v 0.750000 -0.966601 -0.874836
v 0.874836 -0.966601 -0.750000
v 0.869553 -0.934158 -0.869553
v 0.874836 -0.750000 -0.966601
v 0.750000 -0.874836 -0.966601
v 0.869553 -0.869553 -0.934158
v 0.966601 -0.874836 -0.750000
v 0.966601 -0.750000 -0.874836
v 0.934158 -0.869553 -0.869553
v 1.000000 0.750000 0.750000
v 0.750000 1.000000 0.750000
v 0.750000 0.750000 1.000000
v 0.966601 0.874836 0.750000
v 0.966601 0.750000 0.874836
v 0.934158 0.869553 0.869553
v 0.750000 0.966601 0.874836
v 0.874836 0.966601 0.750000
v 0.869553 0.934158 0.869553
v 0.874836 0.750000 0.966601
v 0.750000 0.874836 0.966601
v 0.869553 0.869553 0.934158
v 1.000000 -0.750000 0.750000
v 0.750000 -0.750000 1.000000
v 0.750000 -1.000000 0.750000
v 0.966601 -0.750000 0.874836
v 0.966601 -0.874836 0.750000
v 0.934158 -0.869553 0.869553
v 0.750000 -0.874836 0.966601
v 0.874836 -0.750000 0.966601
v 0.869553 -0.869553 0.934158
v 0.874836 -0.966601 0.750000
v 0.750000 -0.966601 0.874836
v 0.869553 -0.934158 0.869553
v -0.750000 0.750000 -1.000000
v -1.000000 0.750000 -0.750000
v -0.750000 1.000000 -0.750000
v -0.874836 0.750000 -0.966601
v -0.750000 0.874836 -0.966601
v -0.869553 0.869553 -0.934158
v -0.966601 0.874836 -0.750000
v -0.966601 0.750000 -0.874836
v -0.934158 0.869553 -0.869553
v -0.750000 0.966601 -0.874836
v -0.874836 0.966601 -0.750000
v -0.869553 0.934158 -0.869553
v -1.000000 -0.750000 -0.750000
v -0.750000 -0.750000 -1.000000
v -0.750000 -1.000000 -0.750000
v -0.966601 -0.750000 -0.874836
v -0.966601 -0.874836 -0.750000
v -0.934158 -0.869553 -0.869553
v -0.750000 -0.874836 -0.966601
v -0.874836 -0.750000 -0.966601
v -0.869553 -0.869553 -0.934158
v -0.874836 -0.966601 -0.750000
v -0.750000 -0.966601 -0.874836
v -0.869553 -0.934158 -0.869553
v -1.000000 0.750000 0.750000
v -0.750000 0.750000 1.000000
v -0.750000 1.000000 0.750000
v -0.966601 0.750000 0.874836
v -0.966601 0.874836 0.750000
v -0.934158 0.869553 0.869553
v -0.750000 0.874836 0.966601
v -0.874836 0.750000 0.966601
v -0.869553 0.869553 0.934158
v -0.874836 0.966601 0.750000
v -0.750000 0.966601 0.874836
v -0.869553 0.934158 0.869553
v -0.750000 -1.000000 0.750000
v -0.750000 -0.750000 1.000000
v -1.000000 -0.750000 0.750000
v -0.750000 -0.966601 0.874836
v -0.874836 -0.966601 0.750000
v -0.869553 -0.934158 0.869553
v -0.874836 -0.750000 0.966601
v -0.750000 -0.874836 0.966601
v -0.869553 -0.869553 0.934158
v -0.966601 -0.874836 0.750000
v -0.966601 -0.750000 0.874836
v -0.934158 -0.869553 0.869553
vn -0.0000 -1.0000 -0.0000
vn -1.0000 -0.0000 -0.0000
vn -0.0000 -0.0000 1.0000
vn -0.0000 1.0000 -0.0000
vn 1.0000 -0.0000 -0.0000
vn -0.0000 -0.0000 -1.0000
vn -0.0000 0.4998 -0.8661
vn 0.4473 0.4473 -0.7745
vn 0.4998 -0.0000 -0.8661
vn -0.0000 0.4999 -0.8661
vn 0.0001 0.8661 -0.4999
vn 0.4473 0.7744 -0.4474
vn 0.4473 0.4474 -0.7745
vn 0.4998 0.8661 -0.0000
vn 0.4473 0.7745 -0.4473
vn -0.0000 0.8661 -0.4998
vn 0.4999 0.8661 -0.0000
vn 0.8661 0.4999 -0.0001
vn 0.7744 0.4474 -0.4473
vn 0.4474 0.7745 -0.4473
vn 0.8661 -0.0000 -0.4998
vn 0.7745 0.4473 -0.4473
vn 0.8661 0.4998 -0.0000
vn 0.8661 -0.0000 -0.4999
vn 0.4999 0.0001 -0.8661
vn 0.4474 0.4473 -0.7744
vn 0.7745 0.4473 -0.4474
vn 0.4473 0.4474 -0.7744
vn 0.4474 0.7744 -0.4473
vn 0.7744 0.4473 -0.4474
vn -0.0000 -0.8661 -0.4998
vn 0.4473 -0.7745 -0.4473
vn 0.4998 -0.8661 -0.0000
vn -0.0000 -0.8661 -0.4999
vn 0.0001 -0.4999 -0.8661
vn 0.4473 -0.4474 -0.7744
vn 0.4473 -0.7745 -0.4474
vn 0.4473 -0.4473 -0.7745
vn -0.0000 -0.4998 -0.8661
vn 0.4999 -0.0000 -0.8661
vn 0.8661 -0.0001 -0.4999
vn 0.7744 -0.4473 -0.4474
vn 0.4474 -0.4473 -0.7745
vn 0.8661 -0.4998 -0.0000
vn 0.7745 -0.4473 -0.4473
vn 0.8661 -0.4999 -0.0000
vn 0.4999 -0.8661 -0.0001
vn 0.4474 -0.7744 -0.4473
vn 0.7745 -0.4474 -0.4473
vn 0.4473 -0.7744 -0.4474
vn 0.4474 -0.4473 -0.7744
vn 0.7744 -0.4474 -0.4473
vn 0.7745 0.4473 0.4473
vn 0.8661 -0.0000 0.4998
vn 0.8661 0.4999 -0.0000
vn 0.4999 0.8661 0.0001
vn 0.4474 0.7744 0.4473
vn 0.7745 0.4474 0.4473
vn -0.0000 0.8661 0.4998
vn 0.4473 0.7745 0.4473
vn -0.0000 0.8661 0.4999
vn 0.0001 0.4999 0.8661
vn 0.4473 0.4474 0.7744
vn 0.4473 0.7745 0.4474
vn 0.4998 -0.0000 0.8661
vn 0.4473 0.4473 0.7745
vn -0.0000 0.4998 0.8661
vn 0.4999 -0.0000 0.8661
vn 0.8661 0.0001 0.4999
vn 0.7744 0.4473 0.4474
vn 0.4474 0.4473 0.7745
vn 0.7744 0.4474 0.4473
vn 0.4473 0.7744 0.4474
vn 0.4474 0.4473 0.7744
vn 0.7745 -0.4473 0.4473
vn 0.8661 -0.0000 0.4999
vn 0.4999 -0.0001 0.8661
vn 0.4474 -0.4473 0.7744
vn 0.7745 -0.4473 0.4474
vn -0.0000 -0.4998 0.8661
vn 0.4473 -0.4473 0.7745
vn -0.0000 -0.4999 0.8661
vn 0.0001 -0.8661 0.4999
vn 0.4473 -0.7744 0.4474
vn 0.4473 -0.4474 0.7745
vn 0.4473 -0.7745 0.4473
vn -0.0000 -0.8661 0.4998
vn 0.4999 -0.8661 -0.0000
vn 0.8661 -0.4999 0.0001
vn 0.7744 -0.4474 0.4473
vn 0.4474 -0.7745 0.4473
vn 0.7744 -0.4473 0.4474
vn 0.4473 -0.4474 0.7744
vn 0.4474 -0.7744 0.4473
vn -0.4998 -0.0000 -0.8661
vn -0.4473 0.4473 -0.7745
vn -0.4999 -0.0000 -0.8661
vn -0.8661 0.0001 -0.4999
vn -0.7744 0.4473 -0.4474
vn -0.4474 0.4473 -0.7745
vn -0.8661 0.4998 -0.0000
vn -0.7745 0.4473 -0.4473
vn -0.8661 -0.0000 -0.4998
vn -0.8661 0.4999 -0.0000
vn -0.4999 0.8661 -0.0001
vn -0.4474 0.7744 -0.4473
vn -0.7745 0.4474 -0.4473
vn -0.4473 0.7745 -0.4473
vn -0.4998 0.8661 -0.0000
vn -0.0000 0.8661 -0.4999
vn -0.0001 0.4999 -0.8661
vn -0.4473 0.4474 -0.7744
vn -0.4473 0.7745 -0.4474
vn -0.4474 0.4473 -0.7744
vn -0.7744 0.4474 -0.4473
vn -0.4473 0.7744 -0.4474
vn -0.7745 -0.4473 -0.4473
vn -0.8661 -0.4998 -0.0000
vn -0.8661 -0.0000 -0.4999
vn -0.4999 -0.0001 -0.8661
vn -0.4474 -0.4473 -0.7744
vn -0.7745 -0.4473 -0.4474
vn -0.4473 -0.4473 -0.7745
vn -0.0000 -0.4999 -0.8661
vn -0.0001 -0.8661 -0.4999
vn -0.4473 -0.7744 -0.4474
vn -0.4473 -0.4474 -0.7745
vn -0.4998 -0.8661 -0.0000
vn -0.4473 -0.7745 -0.4473
vn -0.4999 -0.8661 -0.0000
vn -0.8661 -0.4999 -0.0001
vn -0.7744 -0.4474 -0.4473
vn -0.4474 -0.7745 -0.4473
vn -0.7744 -0.4473 -0.4474
vn -0.4473 -0.4474 -0.7744
vn -0.4474 -0.7744 -0.4473
vn -0.8661 -0.0000 0.4998
vn -0.7745 0.4473 0.4473
vn -0.8661 -0.0000 0.4999
vn -0.4999 0.0001 0.8661
vn -0.4474 0.4473 0.7744
vn -0.7745 0.4473 0.4474
vn -0.4473 0.4473 0.7745
vn -0.4998 -0.0000 0.8661
vn -0.0000 0.4999 0.8661
vn -0.0001 0.8661 0.4999
vn -0.4473 0.7744 0.4474
vn -0.4473 0.4474 0.7745
vn -0.4473 0.7745 0.4473
vn -0.4999 0.8661 -0.0000
vn -0.8661 0.4999 0.0001
vn -0.7744 0.4474 0.4473
vn -0.4474 0.7745 0.4473
vn -0.7744 0.4473 0.4474
vn -0.4473 0.4474 0.7744
vn -0.4474 0.7744 0.4473
vn -0.4473 -0.7745 0.4473
vn -0.0000 -0.8661 0.4999
vn -0.0001 -0.4999 0.8661
vn -0.4473 -0.4474 0.7744
vn -0.4473 -0.7745 0.4474
vn -0.4473 -0.4473 0.7745
vn -0.4999 -0.0000 0.8661
vn -0.8661 -0.0001 0.4999
vn -0.7744 -0.4473 0.4474
vn -0.4474 -0.4473 0.7745
vn -0.7745 -0.4473 0.4473
vn -0.8661 -0.4999 -0.0000
vn -0.4999 -0.8661 0.0001
vn -0.4474 -0.7744 0.4473
vn -0.7745 -0.4474 0.4473
vn -0.4473 -0.7744 0.4474
vn -0.4474 -0.4473 0.7744
vn -0.7744 -0.4474 0.4473
vn -0.0001 -1.0000 -0.0000
vn -1.0000 -0.0001 -0.0000
vn -0.0000 -1.0000 -0.0001
vn -0.0000 -0.0001 -1.0000
vn 1.0000 -0.0000 -0.0001
vn 0.0001 -0.0000 -1.0000
vn -0.0001 -0.0000 1.0000
vn -1.0000 -0.0000 0.0001
vn 0.0001 -0.0000 1.0000
vn 1.0000 -0.0000 0.0001
vn -0.0001 -0.0000 -1.0000
vn -1.0000 -0.0000 -0.0001
vn -0.0000 1.0000 0.0001
vn -0.0000 0.0001 1.0000
vn 0.0001 1.0000 -0.0000
vn 1.0000 0.0001 -0.0000
vn -0.0000 -1.0000 0.0001
vn -0.0000 -0.0001 1.0000
vn -0.0001 1.0000 -0.0000
vn -1.0000 0.0001 -0.0000
vn -0.0000 1.0000 -0.0001
vn -0.0000 0.0001 -1.0000
vn 0.0001 -1.0000 -0.0000
vn 1.0000 -0.0001 -0.0000
vt 0.712079 0.378746
vt 0.954588 0.378746
vt 0.954588 0.621255
vt 0.712079 0.621255
vt 0.621255 0.378746
vt 0.621255 0.621255
vt 0.378746 0.621255
vt 0.378746 0.378746
vt 0.712079 0.712079
vt 0.954588 0.712079
vt 0.954588 0.954588
vt 0.712079 0.954588
vt 0.287921 0.712079
vt 0.287921 0.954588
vt 0.045412 0.954588
vt 0.045412 0.712079
vt 0.378746 0.712079
vt 0.621255 0.712079
vt 0.621255 0.954588
vt 0.378746 0.954588
vt 0.287921 0.621255
vt 0.328339 0.621255
vt 0.328339 0.640583
vt 0.287921 0.661673
vt 0.328339 0.712079
vt 0.308104 0.712079
vt 0.307250 0.692750
vt 0.328339 0.692750
vt 0.287921 0.691896
vt 0.287921 0.671661
vt 0.307250 0.671661
vt 0.621255 0.691896
vt 0.661673 0.692750
vt 0.661673 0.712079
vt 0.621255 0.671660
vt 0.661673 0.671660
vt 0.954588 0.358563
vt 0.973916 0.359417
vt 0.974770 0.378746
vt 0.954588 0.338327
vt 0.973916 0.338327
vt 0.045412 0.621255
vt 0.045412 0.661673
vt 0.004994 0.640583
vt 0.004994 0.621255
vt 0.378746 0.671660
vt 0.378746 0.691896
vt 0.338327 0.692750
vt 0.338327 0.671660
vt 0.338327 0.712079
vt 0.995006 0.378745
vt 0.995006 0.359417
vt 0.661673 0.954588
vt 0.661673 0.973916
vt 0.621255 0.995006
vt 0.045412 0.671661
vt 0.045412 0.691896
vt 0.026084 0.692750
vt 0.026084 0.671661
vt 0.025230 0.712079
vt 0.004994 0.712079
vt 0.004994 0.692750
vt 0.954588 0.691896
vt 0.995006 0.692750
vt 0.995006 0.712079
vt 0.954588 0.671661
vt 0.995006 0.671661
vt 0.378746 0.995006
vt 0.338327 0.973916
vt 0.338327 0.954588
vt 0.712079 0.671661
vt 0.712079 0.691896
vt 0.671661 0.692750
vt 0.671661 0.671661
vt 0.671661 0.712079
vt 0.954588 0.661673
vt 0.954588 0.641437
vt 0.973916 0.640583
vt 0.973916 0.661673
vt 0.974770 0.621255
vt 0.995006 0.621255
vt 0.995006 0.640583
vt 0.287921 0.378746
vt 0.287921 0.338327
vt 0.328339 0.359417
vt 0.328339 0.378746
vt 0.338327 0.621255
vt 0.358563 0.621255
vt 0.359417 0.661673
vt 0.338327 0.661673
vt 0.378746 0.661673
vt 0.287921 0.995006
vt 0.287921 0.974770
vt 0.307250 0.973916
vt 0.307250 0.995006
vt 0.308104 0.954588
vt 0.328339 0.954588
vt 0.328339 0.973916
vt 0.358563 0.378746
vt 0.359417 0.338327
vt 0.378746 0.338327
vt 0.338327 0.378746
vt 0.338327 0.338327
vt 0.045412 0.378746
vt 0.004994 0.378746
vt 0.004994 0.359417
vt 0.045412 0.338327
vt 0.712079 0.338327
vt 0.712079 0.358563
vt 0.692750 0.359417
vt 0.692750 0.338327
vt 0.691896 0.378746
vt 0.671660 0.378745
vt 0.671660 0.359417
vt 0.641437 0.621255
vt 0.640583 0.661673
vt 0.621255 0.661673
vt 0.661673 0.621255
vt 0.661673 0.661673
vt 0.995006 0.954588
vt 0.995006 0.973916
vt 0.954588 0.995006
vt 0.004994 0.954588
vt 0.025230 0.954588
vt 0.026084 0.973916
vt 0.004994 0.973916
vt 0.045412 0.974770
vt 0.045412 0.995006
vt 0.026084 0.995006
vt 0.712079 0.641437
vt 0.692750 0.640583
vt 0.691896 0.621255
vt 0.712079 0.661673
vt 0.692750 0.661673
vt 0.712079 0.995006
vt 0.671661 0.973916
vt 0.671661 0.954588
vt 0.661673 0.378746
vt 0.641437 0.378746
vt 0.640583 0.338327
vt 0.661673 0.338327
vt 0.621255 0.338327
vt 0.671660 0.621255
vt 0.671660 0.640583
s 0
usemtl Material
f 63/1/1 13/2/1 39/3/1 85/4/1
f 87/5/2 73/6/2 50/7/2 61/8/2
f 38/9/3 27/10/3 74/11/3 86/12/3
f 2/13/4 51/14/4 75/15/4 26/16/4
f 15/17/5 3/18/5 25/19/5 37/20/5
f 1/21/6 4/22/7 6/23/8 5/24/9
f 4/25/10 8/26/11 9/27/12 6/28/13
f 2/13/4 7/29/14 9/27/15 8/26/16
f 7/29/17 11/30/18 12/31/19 9/27/20
f 3/18/5 10/32/21 12/33/22 11/34/23
f 10/32/24 5/35/25 6/36/26 12/33/27
f 6/28/28 9/27/29 12/31/30
f 13/2/1 16/37/31 18/38/32 17/39/33
f 16/37/34 20/40/35 21/41/36 18/38/37
f 14/42/6 19/43/9 21/44/38 20/45/39
f 19/46/40 23/47/41 24/48/42 21/49/43
f 15/17/5 22/50/44 24/48/45 23/47/21
f 22/51/46 17/39/47 18/38/48 24/52/49
f 18/38/50 21/41/51 24/52/52
f 25/19/5 28/53/23 30/54/53 29/55/54
f 28/56/55 32/57/56 33/58/57 30/59/58
f 26/16/4 31/60/59 33/58/60 32/57/14
f 31/60/61 35/61/62 36/62/63 33/58/64
f 27/10/3 34/63/65 36/64/66 35/65/67
f 34/63/68 29/66/69 30/67/70 36/64/71
f 30/59/72 33/58/73 36/62/74
f 37/20/5 40/68/54 42/69/75 41/70/44
f 40/71/76 44/72/77 45/73/78 42/74/79
f 38/9/3 43/75/80 45/73/81 44/72/65
f 43/76/82 47/77/83 48/78/84 45/79/85
f 39/3/1 46/80/33 48/78/86 47/77/87
f 46/80/88 41/81/89 42/82/90 48/78/91
f 42/82/92 45/79/93 48/78/94
f 49/83/6 52/84/95 54/85/96 53/86/7
f 52/87/97 56/88/98 57/89/99 54/90/100
f 50/7/2 55/91/101 57/89/102 56/88/103
f 55/92/104 59/93/105 60/94/106 57/95/107
f 51/14/4 58/96/16 60/94/108 59/93/109
f 58/96/110 53/97/111 54/98/112 60/94/113
f 54/98/114 57/95/115 60/94/116
f 61/8/2 64/99/103 66/100/117 65/101/118
f 64/99/119 68/102/120 69/103/121 66/100/122
f 62/104/6 67/105/39 69/106/123 68/107/95
f 67/108/124 71/109/125 72/110/126 69/111/127
f 63/1/1 70/112/128 72/110/129 71/109/31
f 70/112/130 65/113/131 66/114/132 72/110/133
f 66/114/134 69/111/135 72/110/136
f 73/6/2 76/115/137 78/116/138 77/117/101
f 76/115/139 80/118/140 81/119/141 78/116/142
f 74/11/3 79/120/67 81/121/143 80/122/144
f 79/123/145 83/124/146 84/125/147 81/126/148
f 75/15/4 82/127/109 84/125/149 83/124/59
f 82/127/150 77/128/151 78/129/152 84/125/153
f 78/129/154 81/126/155 84/125/156
f 85/4/1 88/130/87 90/131/157 89/132/128
f 88/130/158 92/133/159 93/134/160 90/131/161
f 86/12/3 91/135/144 93/136/162 92/137/80
f 91/138/163 95/139/164 96/140/165 93/141/166
f 87/5/2 94/142/118 96/140/167 95/139/137
f 94/143/168 89/132/169 90/131/170 96/144/171
f 90/131/172 93/134/173 96/144/174
f 63/1/175 85/4/175 89/132/128 70/112/128
f 70/112/130 89/132/130 94/143/168 65/113/168
f 65/101/118 94/142/118 87/5/176 61/8/176
f 13/2/177 63/1/177 71/109/31 16/37/31
f 16/37/34 71/109/34 67/108/124 20/40/124
f 20/45/39 67/105/39 62/104/178 14/42/178
f 3/18/179 15/17/179 23/47/21 10/32/21
f 10/32/24 23/47/24 19/46/40 5/35/40
f 5/24/9 19/43/9 14/42/180 1/21/180
f 86/12/181 74/11/181 80/122/144 91/135/144
f 91/138/163 80/118/163 76/115/139 95/139/139
f 95/139/137 76/115/137 73/6/182 87/5/182
f 27/10/183 38/9/183 44/72/65 34/63/65
f 34/63/68 44/72/68 40/71/76 29/66/76
f 29/55/54 40/68/54 37/20/184 25/19/184
f 49/83/185 62/104/185 68/107/95 52/84/95
f 52/87/97 68/102/97 64/99/119 56/88/119
f 56/88/103 64/99/103 61/8/186 50/7/186
f 26/16/187 75/15/187 83/124/59 31/60/59
f 31/60/61 83/124/61 79/123/145 35/61/145
f 35/65/67 79/120/67 74/11/188 27/10/188
f 2/13/189 26/16/189 32/57/14 7/29/14
f 7/29/17 32/57/17 28/56/55 11/30/55
f 11/34/23 28/53/23 25/19/190 3/18/190
f 85/4/191 39/3/191 47/77/87 88/130/87
f 88/130/158 47/77/158 43/76/82 92/133/82
f 92/137/80 43/75/80 38/9/192 86/12/192
f 75/15/193 51/14/193 59/93/109 82/127/109
f 82/127/150 59/93/150 55/92/104 77/128/104
f 77/117/101 55/91/101 50/7/194 73/6/194
f 51/14/195 2/13/195 8/26/16 58/96/16
f 58/96/110 8/26/110 4/25/10 53/97/10
f 53/86/7 4/22/7 1/21/196 49/83/196
f 39/3/197 13/2/197 17/39/33 46/80/33
f 46/80/88 17/39/88 22/51/46 41/81/46
f 41/70/44 22/50/44 15/17/198 37/20/198
f 62/104/6 49/83/6 1/21/6 14/42/6
